{"files": [{"interlaced_frame": false, "has_audio": true, "audio_bit_rate": 61375, "channel_layout": 3, "audio_stream_index": 1, "video_timebase": {"den": 30, "num": 1}, "pixel_ratio": {"den": 1, "num": 1}, "type": "FFmpegReader", "pixel_format": 0, "display_ratio": {"den": 3, "num": 4}, "height": 480, "acodec": "aac", "channels": 2, "id": "JVF8R1L8D6", "video_stream_index": 0, "video_bit_rate": 856205, "video_length": "7372", "file_size": "26341476", "has_video": true, "sample_rate": 48000, "duration": 246.1226654052734, "vcodec": "h264", "top_field_first": true, "audio_timebase": {"den": 48000, "num": 1}, "has_single_image": false, "fps": {"den": 1, "num": 30}, "width": 640, "media_type": "video", "path": "mark-lewis-algonguin-park.mp4"}, {"interlaced_frame": false, "has_audio": false, "audio_bit_rate": 0, "channel_layout": 4, "audio_stream_index": -1, "video_timebase": {"den": 30, "num": 1}, "pixel_ratio": {"den": 1, "num": 1}, "type": "QtImageReader", "pixel_format": -1, "display_ratio": {"den": 9, "num": 16}, "height": 1080, "acodec": "", "channels": 0, "id": "08ZX9E89ES", "video_stream_index": -1, "video_bit_rate": 0, "video_length": "2592000", "file_size": "8294400", "has_video": true, "sample_rate": 0, "duration": 86400.0, "vcodec": "", "top_field_first": true, "audio_timebase": {"den": 1, "num": 1}, "has_single_image": true, "fps": {"den": 1, "num": 30}, "width": 1920, "media_type": "image", "path": "assets/TitreFichier-1.svg"}, {"interlaced_frame": false, "has_audio": false, "audio_bit_rate": 0, "channel_layout": 4, "audio_stream_index": -1, "video_timebase": {"den": 30, "num": 1}, "pixel_ratio": {"den": 1, "num": 1}, "type": "QtImageReader", "pixel_format": -1, "display_ratio": {"den": 9, "num": 16}, "height": 1080, "acodec": "", "channels": 0, "id": "7NTCZR72VR", "video_stream_index": -1, "video_bit_rate": 0, "video_length": "2592000", "file_size": "8294400", "has_video": true, "sample_rate": 0, "duration": 86400.0, "vcodec": "", "top_field_first": true, "audio_timebase": {"den": 1, "num": 1}, "has_single_image": true, "fps": {"den": 1, "num": 30}, "width": 1920, "media_type": "image", "path": "assets/TitreFichier-2.svg"}, {"interlaced_frame": false, "has_audio": false, "audio_bit_rate": 0, "channel_layout": 4, "audio_stream_index": -1, "video_timebase": {"den": 30, "num": 1}, "pixel_ratio": {"den": 1, "num": 1}, "type": "QtImageReader", "pixel_format": -1, "display_ratio": {"den": 9, "num": 16}, "height": 1080, "acodec": "", "channels": 0, "id": "2SIXWT7BCC", "video_stream_index": -1, "video_bit_rate": 0, "video_length": "2592000", "file_size": "8294400", "has_video": true, "sample_rate": 0, "duration": 86400.0, "vcodec": "", "top_field_first": true, "audio_timebase": {"den": 1, "num": 1}, "has_single_image": true, "fps": {"den": 1, "num": 30}, "width": 1920, "media_type": "image", "path": "assets/TitreFichier-3.svg"}, {"interlaced_frame": false, "has_audio": false, "audio_bit_rate": 0, "channel_layout": 4, "audio_stream_index": -1, "video_timebase": {"den": 30, "num": 1}, "pixel_ratio": {"den": 1, "num": 1}, "type": "QtImageReader", "pixel_format": -1, "display_ratio": {"den": 9, "num": 16}, "height": 1080, "acodec": "", "channels": 0, "id": "QC85BPIGP4", "video_stream_index": -1, "video_bit_rate": 0, "video_length": "2592000", "file_size": "8294400", "has_video": true, "sample_rate": 0, "duration": 86400.0, "vcodec": "", "top_field_first": true, "audio_timebase": {"den": 1, "num": 1}, "has_single_image": true, "fps": {"den": 1, "num": 30}, "width": 1920, "media_type": "image", "path": "assets/TitreFichier-4.svg"}, {"interlaced_frame": false, "has_audio": false, "audio_bit_rate": 0, "channel_layout": 4, "audio_stream_index": -1, "video_timebase": {"den": 30, "num": 1}, "pixel_ratio": {"den": 1, "num": 1}, "type": "QtImageReader", "pixel_format": -1, "display_ratio": {"den": 9, "num": 16}, "height": 1080, "acodec": "", "channels": 0, "id": "YZRVHNP2LW", "video_stream_index": -1, "video_bit_rate": 0, "video_length": "2592000", "file_size": "8294400", "has_video": true, "sample_rate": 0, "duration": 86400.0, "vcodec": "", "top_field_first": true, "audio_timebase": {"den": 1, "num": 1}, "has_single_image": true, "fps": {"den": 1, "num": 30}, "width": 1920, "media_type": "image", "path": "assets/TitreFichier-5.svg"}, {"interlaced_frame": false, "has_audio": false, "audio_bit_rate": 0, "channel_layout": 4, "audio_stream_index": -1, "video_timebase": {"den": 30, "num": 1}, "pixel_ratio": {"den": 1, "num": 1}, "type": "QtImageReader", "pixel_format": -1, "display_ratio": {"den": 9, "num": 16}, "height": 1080, "acodec": "", "channels": 0, "id": "YZT2ONCM8J", "video_stream_index": -1, "video_bit_rate": 0, "video_length": "2592000", "file_size": "8294400", "has_video": true, "sample_rate": 0, "duration": 86400.0, "vcodec": "", "top_field_first": true, "audio_timebase": {"den": 1, "num": 1}, "has_single_image": true, "fps": {"den": 1, "num": 30}, "width": 1920, "media_type": "image", "path": "assets/TitreFichier-6.svg"}, {"interlaced_frame": false, "has_audio": false, "audio_bit_rate": 0, "channel_layout": 4, "audio_stream_index": -1, "video_timebase": {"den": 30, "num": 1}, "pixel_ratio": {"den": 1, "num": 1}, "type": "QtImageReader", "pixel_format": -1, "display_ratio": {"den": 9, "num": 16}, "height": 1080, "acodec": "", "channels": 0, "id": "FSUOADOAYD", "video_stream_index": -1, "video_bit_rate": 0, "video_length": "2592000", "file_size": "8294400", "has_video": true, "sample_rate": 0, "duration": 86400.0, "vcodec": "", "top_field_first": true, "audio_timebase": {"den": 1, "num": 1}, "has_single_image": true, "fps": {"den": 1, "num": 30}, "width": 1920, "media_type": "image", "path": "assets/TitreFichier-7.svg"}, {"interlaced_frame": false, "has_audio": false, "audio_bit_rate": 0, "channel_layout": 4, "audio_stream_index": -1, "video_timebase": {"den": 30, "num": 1}, "pixel_ratio": {"den": 1, "num": 1}, "type": "QtImageReader", "pixel_format": -1, "display_ratio": {"den": 9, "num": 16}, "height": 1080, "acodec": "", "channels": 0, "id": "JPO77SAFD8", "video_stream_index": -1, "video_bit_rate": 0, "video_length": "2592000", "file_size": "8294400", "has_video": true, "sample_rate": 0, "duration": 86400.0, "vcodec": "", "top_field_first": true, "audio_timebase": {"den": 1, "num": 1}, "has_single_image": true, "fps": {"den": 1, "num": 30}, "width": 1920, "media_type": "image", "path": "assets/TitreFichier-8.svg"}, {"interlaced_frame": false, "has_audio": false, "audio_bit_rate": 0, "channel_layout": 4, "audio_stream_index": -1, "video_timebase": {"den": 30, "num": 1}, "pixel_ratio": {"den": 1, "num": 1}, "type": "QtImageReader", "pixel_format": -1, "display_ratio": {"den": 9, "num": 16}, "height": 1080, "acodec": "", "channels": 0, "id": "TGXS2O99P3", "video_stream_index": -1, "video_bit_rate": 0, "video_length": "2592000", "file_size": "8294400", "has_video": true, "sample_rate": 0, "duration": 86400.0, "vcodec": "", "top_field_first": true, "audio_timebase": {"den": 1, "num": 1}, "has_single_image": true, "fps": {"den": 1, "num": 30}, "width": 1920, "media_type": "image", "path": "assets/TitreFichier-9.svg"}, {"interlaced_frame": false, "has_audio": false, "audio_bit_rate": 0, "channel_layout": 4, "audio_stream_index": -1, "video_timebase": {"den": 30, "num": 1}, "pixel_ratio": {"den": 1, "num": 1}, "type": "QtImageReader", "pixel_format": -1, "display_ratio": {"den": 9, "num": 16}, "height": 1080, "acodec": "", "channels": 0, "id": "04UJGNEISI", "video_stream_index": -1, "video_bit_rate": 0, "video_length": "2592000", "file_size": "8294400", "has_video": true, "sample_rate": 0, "duration": 86400.0, "vcodec": "", "top_field_first": true, "audio_timebase": {"den": 1, "num": 1}, "has_single_image": true, "fps": {"den": 1, "num": 30}, "width": 1920, "media_type": "image", "path": "assets/TitreFichier-10.svg"}, {"interlaced_frame": false, "has_audio": false, "audio_bit_rate": 0, "channel_layout": 4, "audio_stream_index": -1, "video_timebase": {"den": 30, "num": 1}, "pixel_ratio": {"den": 1, "num": 1}, "type": "QtImageReader", "pixel_format": -1, "display_ratio": {"den": 9, "num": 16}, "height": 1080, "acodec": "", "channels": 0, "id": "2T4JR2T1W4", "video_stream_index": -1, "video_bit_rate": 0, "video_length": "2592000", "file_size": "8294400", "has_video": true, "sample_rate": 0, "duration": 86400.0, "vcodec": "", "top_field_first": true, "audio_timebase": {"den": 1, "num": 1}, "has_single_image": true, "fps": {"den": 1, "num": 30}, "width": 1920, "media_type": "image", "path": "assets/TitreFichier-11.svg"}, {"interlaced_frame": false, "has_audio": false, "audio_bit_rate": 0, "channel_layout": 4, "audio_stream_index": -1, "video_timebase": {"den": 30, "num": 1}, "pixel_ratio": {"den": 1, "num": 1}, "type": "QtImageReader", "pixel_format": -1, "display_ratio": {"den": 9, "num": 16}, "height": 1080, "acodec": "", "channels": 0, "id": "FDJC1T7RPA", "video_stream_index": -1, "video_bit_rate": 0, "video_length": "2592000", "file_size": "8294400", "has_video": true, "sample_rate": 0, "duration": 86400.0, "vcodec": "", "top_field_first": true, "audio_timebase": {"den": 1, "num": 1}, "has_single_image": true, "fps": {"den": 1, "num": 30}, "width": 1920, "media_type": "image", "path": "assets/TitreFichier-12.svg"}, {"interlaced_frame": false, "has_audio": false, "audio_bit_rate": 0, "channel_layout": 4, "audio_stream_index": -1, "video_timebase": {"den": 30, "num": 1}, "pixel_ratio": {"den": 1, "num": 1}, "type": "QtImageReader", "pixel_format": -1, "display_ratio": {"den": 9, "num": 16}, "height": 1080, "acodec": "", "channels": 0, "id": "3P8U8TXZMR", "video_stream_index": -1, "video_bit_rate": 0, "video_length": "2592000", "file_size": "8294400", "has_video": true, "sample_rate": 0, "duration": 86400.0, "vcodec": "", "top_field_first": true, "audio_timebase": {"den": 1, "num": 1}, "has_single_image": true, "fps": {"den": 1, "num": 30}, "width": 1920, "media_type": "image", "path": "assets/TitreFichier-13.svg"}], "channel_layout": 3, "profile": "HDV 720 24p", "export_path": "", "progress": [], "clips": [{"has_audio": {"Points": [{"co": {"X": 1.0, "Y": -1.0}, "interpolation": 2}]}, "rotation": {"Points": [{"co": {"X": 1.0, "Y": 0.0}, "interpolation": 2}]}, "file_id": "08ZX9E89ES", "perspective_c1_x": {"Points": [{"co": {"X": 1.0, "Y": -1.0}, "interpolation": 2}]}, "waveform": false, "time": {"Points": [{"co": {"X": 1.0, "Y": 0.0}, "interpolation": 2}]}, "perspective_c3_x": {"Points": [{"co": {"X": 1.0, "Y": -1.0}, "interpolation": 2}]}, "end": 10, "crop_height": {"Points": [{"co": {"X": 1.0, "Y": -1.0}, "interpolation": 2}]}, "scale": 1, "crop_x": {"Points": [{"co": {"X": 1.0, "Y": 0.0}, "interpolation": 2}]}, "gravity": 4, "perspective_c3_y": {"Points": [{"co": {"X": 1.0, "Y": -1.0}, "interpolation": 2}]}, "perspective_c2_y": {"Points": [{"co": {"X": 1.0, "Y": -1.0}, "interpolation": 2}]}, "shear_y": {"Points": [{"co": {"X": 1.0, "Y": 0.0}, "interpolation": 2}]}, "layer": 4, "volume": {"Points": [{"co": {"X": 1.0, "Y": 1.0}, "interpolation": 2}]}, "image": "../../../../../.openshot_qt/thumbnail/08ZX9E89ES.png", "wave_color": {"blue": {"Points": [{"co": {"X": 1.0, "Y": 255.0}, "handle_right": {"X": 0.5, "Y": 0.0}, "handle_left": {"X": 0.5, "Y": 1.0}, "interpolation": 0, "handle_type": 0}]}, "alpha": {"Points": [{"co": {"X": 1.0, "Y": 255.0}, "handle_right": {"X": 0.5, "Y": 0.0}, "handle_left": {"X": 0.5, "Y": 1.0}, "interpolation": 0, "handle_type": 0}]}, "red": {"Points": [{"co": {"X": 1.0, "Y": 0.0}, "handle_right": {"X": 0.5, "Y": 0.0}, "handle_left": {"X": 0.5, "Y": 1.0}, "interpolation": 0, "handle_type": 0}]}, "green": {"Points": [{"co": {"X": 1.0, "Y": 123.0}, "handle_right": {"X": 0.5, "Y": 0.0}, "handle_left": {"X": 0.5, "Y": 1.0}, "interpolation": 0, "handle_type": 0}]}}, "scale_x": {"Points": [{"co": {"X": 1.0, "Y": 1.0}, "interpolation": 2}]}, "alpha": {"Points": [{"co": {"X": 1.0, "Y": 1.0}, "interpolation": 2}]}, "effects": [], "position": 0, "perspective_c1_y": {"Points": [{"co": {"X": 1.0, "Y": -1.0}, "interpolation": 2}]}, "display": 0, "shear_x": {"Points": [{"co": {"X": 1.0, "Y": 0.0}, "interpolation": 2}]}, "reader": {"interlaced_frame": false, "has_audio": false, "audio_bit_rate": 0, "channel_layout": 4, "audio_stream_index": -1, "video_timebase": {"den": 30, "num": 1}, "pixel_ratio": {"den": 1, "num": 1}, "type": "QtImageReader", "pixel_format": -1, "display_ratio": {"den": 9, "num": 16}, "height": 1080, "acodec": "", "channels": 0, "video_stream_index": -1, "video_bit_rate": 0, "video_length": "2592000", "file_size": "8294400", "has_video": true, "sample_rate": 0, "duration": 86400.0, "vcodec": "", "top_field_first": true, "audio_timebase": {"den": 1, "num": 1}, "fps": {"den": 1, "num": 30}, "width": 1920, "has_single_image": true, "path": "assets/TitreFichier-1.svg"}, "channel_filter": {"Points": [{"co": {"X": 1.0, "Y": -1.0}, "interpolation": 2}]}, "perspective_c2_x": {"Points": [{"co": {"X": 1.0, "Y": -1.0}, "interpolation": 2}]}, "anchor": 0, "id": "VE777CNNIF", "location_y": {"Points": [{"co": {"X": 1.0, "Y": 0.0}, "interpolation": 2}]}, "channel_mapping": {"Points": [{"co": {"X": 1.0, "Y": -1.0}, "interpolation": 2}]}, "scale_y": {"Points": [{"co": {"X": 1.0, "Y": 1.0}, "interpolation": 2}]}, "crop_y": {"Points": [{"co": {"X": 1.0, "Y": 0.0}, "interpolation": 2}]}, "perspective_c4_y": {"Points": [{"co": {"X": 1.0, "Y": -1.0}, "interpolation": 2}]}, "has_video": {"Points": [{"co": {"X": 1.0, "Y": -1.0}, "interpolation": 2}]}, "title": "TitreFichier-1.svg", "crop_width": {"Points": [{"co": {"X": 1.0, "Y": -1.0}, "interpolation": 2}]}, "location_x": {"Points": [{"co": {"X": 1.0, "Y": 0.0}, "interpolation": 2}]}, "start": 0, "duration": 86400.0, "perspective_c4_x": {"Points": [{"co": {"X": 1.0, "Y": -1.0}, "interpolation": 2}]}}, {"has_audio": {"Points": [{"co": {"X": 1.0, "Y": -1.0}, "interpolation": 2}]}, "rotation": {"Points": [{"co": {"X": 1.0, "Y": 0.0}, "interpolation": 2}]}, "file_id": "7NTCZR72VR", "perspective_c1_x": {"Points": [{"co": {"X": 1.0, "Y": -1.0}, "interpolation": 2}]}, "waveform": false, "time": {"Points": [{"co": {"X": 1.0, "Y": 0.0}, "interpolation": 2}]}, "perspective_c3_x": {"Points": [{"co": {"X": 1.0, "Y": -1.0}, "interpolation": 2}]}, "end": 10, "crop_height": {"Points": [{"co": {"X": 1.0, "Y": -1.0}, "interpolation": 2}]}, "scale": 1, "crop_x": {"Points": [{"co": {"X": 1.0, "Y": 0.0}, "interpolation": 2}]}, "gravity": 4, "perspective_c3_y": {"Points": [{"co": {"X": 1.0, "Y": -1.0}, "interpolation": 2}]}, "perspective_c2_y": {"Points": [{"co": {"X": 1.0, "Y": -1.0}, "interpolation": 2}]}, "shear_y": {"Points": [{"co": {"X": 1.0, "Y": 0.0}, "interpolation": 2}]}, "layer": 4, "volume": {"Points": [{"co": {"X": 1.0, "Y": 1.0}, "interpolation": 2}]}, "image": "../../../../../.openshot_qt/thumbnail/7NTCZR72VR.png", "wave_color": {"blue": {"Points": [{"co": {"X": 1.0, "Y": 255.0}, "handle_right": {"X": 0.5, "Y": 0.0}, "handle_left": {"X": 0.5, "Y": 1.0}, "interpolation": 0, "handle_type": 0}]}, "alpha": {"Points": [{"co": {"X": 1.0, "Y": 255.0}, "handle_right": {"X": 0.5, "Y": 0.0}, "handle_left": {"X": 0.5, "Y": 1.0}, "interpolation": 0, "handle_type": 0}]}, "red": {"Points": [{"co": {"X": 1.0, "Y": 0.0}, "handle_right": {"X": 0.5, "Y": 0.0}, "handle_left": {"X": 0.5, "Y": 1.0}, "interpolation": 0, "handle_type": 0}]}, "green": {"Points": [{"co": {"X": 1.0, "Y": 123.0}, "handle_right": {"X": 0.5, "Y": 0.0}, "handle_left": {"X": 0.5, "Y": 1.0}, "interpolation": 0, "handle_type": 0}]}}, "scale_x": {"Points": [{"co": {"X": 1.0, "Y": 1.0}, "interpolation": 2}]}, "alpha": {"Points": [{"co": {"X": 1.0, "Y": 1.0}, "interpolation": 2}]}, "effects": [], "position": 10, "perspective_c1_y": {"Points": [{"co": {"X": 1.0, "Y": -1.0}, "interpolation": 2}]}, "display": 0, "shear_x": {"Points": [{"co": {"X": 1.0, "Y": 0.0}, "interpolation": 2}]}, "reader": {"interlaced_frame": false, "has_audio": false, "audio_bit_rate": 0, "channel_layout": 4, "audio_stream_index": -1, "video_timebase": {"den": 30, "num": 1}, "pixel_ratio": {"den": 1, "num": 1}, "type": "QtImageReader", "pixel_format": -1, "display_ratio": {"den": 9, "num": 16}, "height": 1080, "acodec": "", "channels": 0, "video_stream_index": -1, "video_bit_rate": 0, "video_length": "2592000", "file_size": "8294400", "has_video": true, "sample_rate": 0, "duration": 86400.0, "vcodec": "", "top_field_first": true, "audio_timebase": {"den": 1, "num": 1}, "fps": {"den": 1, "num": 30}, "width": 1920, "has_single_image": true, "path": "assets/TitreFichier-2.svg"}, "channel_filter": {"Points": [{"co": {"X": 1.0, "Y": -1.0}, "interpolation": 2}]}, "perspective_c2_x": {"Points": [{"co": {"X": 1.0, "Y": -1.0}, "interpolation": 2}]}, "anchor": 0, "id": "OS0R1DXEYS", "location_y": {"Points": [{"co": {"X": 1.0, "Y": 0.0}, "interpolation": 2}]}, "channel_mapping": {"Points": [{"co": {"X": 1.0, "Y": -1.0}, "interpolation": 2}]}, "scale_y": {"Points": [{"co": {"X": 1.0, "Y": 1.0}, "interpolation": 2}]}, "crop_y": {"Points": [{"co": {"X": 1.0, "Y": 0.0}, "interpolation": 2}]}, "perspective_c4_y": {"Points": [{"co": {"X": 1.0, "Y": -1.0}, "interpolation": 2}]}, "has_video": {"Points": [{"co": {"X": 1.0, "Y": -1.0}, "interpolation": 2}]}, "title": "TitreFichier-2.svg", "crop_width": {"Points": [{"co": {"X": 1.0, "Y": -1.0}, "interpolation": 2}]}, "location_x": {"Points": [{"co": {"X": 1.0, "Y": 0.0}, "interpolation": 2}]}, "start": 0, "duration": 86400.0, "perspective_c4_x": {"Points": [{"co": {"X": 1.0, "Y": -1.0}, "interpolation": 2}]}}, {"has_audio": {"Points": [{"co": {"X": 1.0, "Y": -1.0}, "interpolation": 2}]}, "rotation": {"Points": [{"co": {"X": 1.0, "Y": 0.0}, "interpolation": 2}]}, "file_id": "2SIXWT7BCC", "perspective_c1_x": {"Points": [{"co": {"X": 1.0, "Y": -1.0}, "interpolation": 2}]}, "waveform": false, "time": {"Points": [{"co": {"X": 1.0, "Y": 0.0}, "interpolation": 2}]}, "perspective_c3_x": {"Points": [{"co": {"X": 1.0, "Y": -1.0}, "interpolation": 2}]}, "end": 10, "crop_height": {"Points": [{"co": {"X": 1.0, "Y": -1.0}, "interpolation": 2}]}, "scale": 1, "crop_x": {"Points": [{"co": {"X": 1.0, "Y": 0.0}, "interpolation": 2}]}, "gravity": 4, "perspective_c3_y": {"Points": [{"co": {"X": 1.0, "Y": -1.0}, "interpolation": 2}]}, "perspective_c2_y": {"Points": [{"co": {"X": 1.0, "Y": -1.0}, "interpolation": 2}]}, "shear_y": {"Points": [{"co": {"X": 1.0, "Y": 0.0}, "interpolation": 2}]}, "layer": 4, "volume": {"Points": [{"co": {"X": 1.0, "Y": 1.0}, "interpolation": 2}]}, "image": "../../../../../.openshot_qt/thumbnail/2SIXWT7BCC.png", "wave_color": {"blue": {"Points": [{"co": {"X": 1.0, "Y": 255.0}, "handle_right": {"X": 0.5, "Y": 0.0}, "handle_left": {"X": 0.5, "Y": 1.0}, "interpolation": 0, "handle_type": 0}]}, "alpha": {"Points": [{"co": {"X": 1.0, "Y": 255.0}, "handle_right": {"X": 0.5, "Y": 0.0}, "handle_left": {"X": 0.5, "Y": 1.0}, "interpolation": 0, "handle_type": 0}]}, "red": {"Points": [{"co": {"X": 1.0, "Y": 0.0}, "handle_right": {"X": 0.5, "Y": 0.0}, "handle_left": {"X": 0.5, "Y": 1.0}, "interpolation": 0, "handle_type": 0}]}, "green": {"Points": [{"co": {"X": 1.0, "Y": 123.0}, "handle_right": {"X": 0.5, "Y": 0.0}, "handle_left": {"X": 0.5, "Y": 1.0}, "interpolation": 0, "handle_type": 0}]}}, "scale_x": {"Points": [{"co": {"X": 1.0, "Y": 1.0}, "interpolation": 2}]}, "alpha": {"Points": [{"co": {"X": 1.0, "Y": 1.0}, "interpolation": 2}]}, "effects": [], "position": 20, "perspective_c1_y": {"Points": [{"co": {"X": 1.0, "Y": -1.0}, "interpolation": 2}]}, "display": 0, "shear_x": {"Points": [{"co": {"X": 1.0, "Y": 0.0}, "interpolation": 2}]}, "reader": {"interlaced_frame": false, "has_audio": false, "audio_bit_rate": 0, "channel_layout": 4, "audio_stream_index": -1, "video_timebase": {"den": 30, "num": 1}, "pixel_ratio": {"den": 1, "num": 1}, "type": "QtImageReader", "pixel_format": -1, "display_ratio": {"den": 9, "num": 16}, "height": 1080, "acodec": "", "channels": 0, "video_stream_index": -1, "video_bit_rate": 0, "video_length": "2592000", "file_size": "8294400", "has_video": true, "sample_rate": 0, "duration": 86400.0, "vcodec": "", "top_field_first": true, "audio_timebase": {"den": 1, "num": 1}, "fps": {"den": 1, "num": 30}, "width": 1920, "has_single_image": true, "path": "assets/TitreFichier-3.svg"}, "channel_filter": {"Points": [{"co": {"X": 1.0, "Y": -1.0}, "interpolation": 2}]}, "perspective_c2_x": {"Points": [{"co": {"X": 1.0, "Y": -1.0}, "interpolation": 2}]}, "anchor": 0, "id": "QEV3LHEBEO", "location_y": {"Points": [{"co": {"X": 1.0, "Y": 0.0}, "interpolation": 2}]}, "channel_mapping": {"Points": [{"co": {"X": 1.0, "Y": -1.0}, "interpolation": 2}]}, "scale_y": {"Points": [{"co": {"X": 1.0, "Y": 1.0}, "interpolation": 2}]}, "crop_y": {"Points": [{"co": {"X": 1.0, "Y": 0.0}, "interpolation": 2}]}, "perspective_c4_y": {"Points": [{"co": {"X": 1.0, "Y": -1.0}, "interpolation": 2}]}, "has_video": {"Points": [{"co": {"X": 1.0, "Y": -1.0}, "interpolation": 2}]}, "title": "TitreFichier-3.svg", "crop_width": {"Points": [{"co": {"X": 1.0, "Y": -1.0}, "interpolation": 2}]}, "location_x": {"Points": [{"co": {"X": 1.0, "Y": 0.0}, "interpolation": 2}]}, "start": 0, "duration": 86400.0, "perspective_c4_x": {"Points": [{"co": {"X": 1.0, "Y": -1.0}, "interpolation": 2}]}}, {"has_audio": {"Points": [{"co": {"X": 1.0, "Y": -1.0}, "interpolation": 2}]}, "rotation": {"Points": [{"co": {"X": 1.0, "Y": 0.0}, "interpolation": 2}]}, "file_id": "QC85BPIGP4", "perspective_c1_x": {"Points": [{"co": {"X": 1.0, "Y": -1.0}, "interpolation": 2}]}, "waveform": false, "time": {"Points": [{"co": {"X": 1.0, "Y": 0.0}, "interpolation": 2}]}, "perspective_c3_x": {"Points": [{"co": {"X": 1.0, "Y": -1.0}, "interpolation": 2}]}, "end": 10, "crop_height": {"Points": [{"co": {"X": 1.0, "Y": -1.0}, "interpolation": 2}]}, "scale": 1, "crop_x": {"Points": [{"co": {"X": 1.0, "Y": 0.0}, "interpolation": 2}]}, "gravity": 4, "perspective_c3_y": {"Points": [{"co": {"X": 1.0, "Y": -1.0}, "interpolation": 2}]}, "perspective_c2_y": {"Points": [{"co": {"X": 1.0, "Y": -1.0}, "interpolation": 2}]}, "shear_y": {"Points": [{"co": {"X": 1.0, "Y": 0.0}, "interpolation": 2}]}, "layer": 4, "volume": {"Points": [{"co": {"X": 1.0, "Y": 1.0}, "interpolation": 2}]}, "image": "../../../../../.openshot_qt/thumbnail/QC85BPIGP4.png", "wave_color": {"blue": {"Points": [{"co": {"X": 1.0, "Y": 255.0}, "handle_right": {"X": 0.5, "Y": 0.0}, "handle_left": {"X": 0.5, "Y": 1.0}, "interpolation": 0, "handle_type": 0}]}, "alpha": {"Points": [{"co": {"X": 1.0, "Y": 255.0}, "handle_right": {"X": 0.5, "Y": 0.0}, "handle_left": {"X": 0.5, "Y": 1.0}, "interpolation": 0, "handle_type": 0}]}, "red": {"Points": [{"co": {"X": 1.0, "Y": 0.0}, "handle_right": {"X": 0.5, "Y": 0.0}, "handle_left": {"X": 0.5, "Y": 1.0}, "interpolation": 0, "handle_type": 0}]}, "green": {"Points": [{"co": {"X": 1.0, "Y": 123.0}, "handle_right": {"X": 0.5, "Y": 0.0}, "handle_left": {"X": 0.5, "Y": 1.0}, "interpolation": 0, "handle_type": 0}]}}, "scale_x": {"Points": [{"co": {"X": 1.0, "Y": 1.0}, "interpolation": 2}]}, "alpha": {"Points": [{"co": {"X": 1.0, "Y": 1.0}, "interpolation": 2}]}, "effects": [], "position": 30, "perspective_c1_y": {"Points": [{"co": {"X": 1.0, "Y": -1.0}, "interpolation": 2}]}, "display": 0, "shear_x": {"Points": [{"co": {"X": 1.0, "Y": 0.0}, "interpolation": 2}]}, "reader": {"interlaced_frame": false, "has_audio": false, "audio_bit_rate": 0, "channel_layout": 4, "audio_stream_index": -1, "video_timebase": {"den": 30, "num": 1}, "pixel_ratio": {"den": 1, "num": 1}, "type": "QtImageReader", "pixel_format": -1, "display_ratio": {"den": 9, "num": 16}, "height": 1080, "acodec": "", "channels": 0, "video_stream_index": -1, "video_bit_rate": 0, "video_length": "2592000", "file_size": "8294400", "has_video": true, "sample_rate": 0, "duration": 86400.0, "vcodec": "", "top_field_first": true, "audio_timebase": {"den": 1, "num": 1}, "fps": {"den": 1, "num": 30}, "width": 1920, "has_single_image": true, "path": "assets/TitreFichier-4.svg"}, "channel_filter": {"Points": [{"co": {"X": 1.0, "Y": -1.0}, "interpolation": 2}]}, "perspective_c2_x": {"Points": [{"co": {"X": 1.0, "Y": -1.0}, "interpolation": 2}]}, "anchor": 0, "id": "7QF3WYWS73", "location_y": {"Points": [{"co": {"X": 1.0, "Y": 0.0}, "interpolation": 2}]}, "channel_mapping": {"Points": [{"co": {"X": 1.0, "Y": -1.0}, "interpolation": 2}]}, "scale_y": {"Points": [{"co": {"X": 1.0, "Y": 1.0}, "interpolation": 2}]}, "crop_y": {"Points": [{"co": {"X": 1.0, "Y": 0.0}, "interpolation": 2}]}, "perspective_c4_y": {"Points": [{"co": {"X": 1.0, "Y": -1.0}, "interpolation": 2}]}, "has_video": {"Points": [{"co": {"X": 1.0, "Y": -1.0}, "interpolation": 2}]}, "title": "TitreFichier-4.svg", "crop_width": {"Points": [{"co": {"X": 1.0, "Y": -1.0}, "interpolation": 2}]}, "location_x": {"Points": [{"co": {"X": 1.0, "Y": 0.0}, "interpolation": 2}]}, "start": 0, "duration": 86400.0, "perspective_c4_x": {"Points": [{"co": {"X": 1.0, "Y": -1.0}, "interpolation": 2}]}}, {"has_audio": {"Points": [{"co": {"X": 1.0, "Y": -1.0}, "interpolation": 2}]}, "rotation": {"Points": [{"co": {"X": 1.0, "Y": 0.0}, "interpolation": 2}]}, "file_id": "YZRVHNP2LW", "perspective_c1_x": {"Points": [{"co": {"X": 1.0, "Y": -1.0}, "interpolation": 2}]}, "waveform": false, "time": {"Points": [{"co": {"X": 1.0, "Y": 0.0}, "interpolation": 2}]}, "perspective_c3_x": {"Points": [{"co": {"X": 1.0, "Y": -1.0}, "interpolation": 2}]}, "end": 10, "crop_height": {"Points": [{"co": {"X": 1.0, "Y": -1.0}, "interpolation": 2}]}, "scale": 1, "crop_x": {"Points": [{"co": {"X": 1.0, "Y": 0.0}, "interpolation": 2}]}, "gravity": 4, "perspective_c3_y": {"Points": [{"co": {"X": 1.0, "Y": -1.0}, "interpolation": 2}]}, "perspective_c2_y": {"Points": [{"co": {"X": 1.0, "Y": -1.0}, "interpolation": 2}]}, "shear_y": {"Points": [{"co": {"X": 1.0, "Y": 0.0}, "interpolation": 2}]}, "layer": 4, "volume": {"Points": [{"co": {"X": 1.0, "Y": 1.0}, "interpolation": 2}]}, "image": "../../../../../.openshot_qt/thumbnail/YZRVHNP2LW.png", "wave_color": {"blue": {"Points": [{"co": {"X": 1.0, "Y": 255.0}, "handle_right": {"X": 0.5, "Y": 0.0}, "handle_left": {"X": 0.5, "Y": 1.0}, "interpolation": 0, "handle_type": 0}]}, "alpha": {"Points": [{"co": {"X": 1.0, "Y": 255.0}, "handle_right": {"X": 0.5, "Y": 0.0}, "handle_left": {"X": 0.5, "Y": 1.0}, "interpolation": 0, "handle_type": 0}]}, "red": {"Points": [{"co": {"X": 1.0, "Y": 0.0}, "handle_right": {"X": 0.5, "Y": 0.0}, "handle_left": {"X": 0.5, "Y": 1.0}, "interpolation": 0, "handle_type": 0}]}, "green": {"Points": [{"co": {"X": 1.0, "Y": 123.0}, "handle_right": {"X": 0.5, "Y": 0.0}, "handle_left": {"X": 0.5, "Y": 1.0}, "interpolation": 0, "handle_type": 0}]}}, "scale_x": {"Points": [{"co": {"X": 1.0, "Y": 1.0}, "interpolation": 2}]}, "alpha": {"Points": [{"co": {"X": 1.0, "Y": 1.0}, "interpolation": 2}]}, "effects": [], "position": 40, "perspective_c1_y": {"Points": [{"co": {"X": 1.0, "Y": -1.0}, "interpolation": 2}]}, "display": 0, "shear_x": {"Points": [{"co": {"X": 1.0, "Y": 0.0}, "interpolation": 2}]}, "reader": {"interlaced_frame": false, "has_audio": false, "audio_bit_rate": 0, "channel_layout": 4, "audio_stream_index": -1, "video_timebase": {"den": 30, "num": 1}, "pixel_ratio": {"den": 1, "num": 1}, "type": "QtImageReader", "pixel_format": -1, "display_ratio": {"den": 9, "num": 16}, "height": 1080, "acodec": "", "channels": 0, "video_stream_index": -1, "video_bit_rate": 0, "video_length": "2592000", "file_size": "8294400", "has_video": true, "sample_rate": 0, "duration": 86400.0, "vcodec": "", "top_field_first": true, "audio_timebase": {"den": 1, "num": 1}, "fps": {"den": 1, "num": 30}, "width": 1920, "has_single_image": true, "path": "assets/TitreFichier-5.svg"}, "channel_filter": {"Points": [{"co": {"X": 1.0, "Y": -1.0}, "interpolation": 2}]}, "perspective_c2_x": {"Points": [{"co": {"X": 1.0, "Y": -1.0}, "interpolation": 2}]}, "anchor": 0, "id": "N7JESQVLWA", "location_y": {"Points": [{"co": {"X": 1.0, "Y": 0.0}, "interpolation": 2}]}, "channel_mapping": {"Points": [{"co": {"X": 1.0, "Y": -1.0}, "interpolation": 2}]}, "scale_y": {"Points": [{"co": {"X": 1.0, "Y": 1.0}, "interpolation": 2}]}, "crop_y": {"Points": [{"co": {"X": 1.0, "Y": 0.0}, "interpolation": 2}]}, "perspective_c4_y": {"Points": [{"co": {"X": 1.0, "Y": -1.0}, "interpolation": 2}]}, "has_video": {"Points": [{"co": {"X": 1.0, "Y": -1.0}, "interpolation": 2}]}, "title": "TitreFichier-5.svg", "crop_width": {"Points": [{"co": {"X": 1.0, "Y": -1.0}, "interpolation": 2}]}, "location_x": {"Points": [{"co": {"X": 1.0, "Y": 0.0}, "interpolation": 2}]}, "start": 0, "duration": 86400.0, "perspective_c4_x": {"Points": [{"co": {"X": 1.0, "Y": -1.0}, "interpolation": 2}]}}, {"has_audio": {"Points": [{"co": {"X": 1.0, "Y": -1.0}, "interpolation": 2}]}, "rotation": {"Points": [{"co": {"X": 1.0, "Y": 0.0}, "interpolation": 2}]}, "file_id": "YZT2ONCM8J", "perspective_c1_x": {"Points": [{"co": {"X": 1.0, "Y": -1.0}, "interpolation": 2}]}, "waveform": false, "time": {"Points": [{"co": {"X": 1.0, "Y": 0.0}, "interpolation": 2}]}, "perspective_c3_x": {"Points": [{"co": {"X": 1.0, "Y": -1.0}, "interpolation": 2}]}, "end": 10, "crop_height": {"Points": [{"co": {"X": 1.0, "Y": -1.0}, "interpolation": 2}]}, "scale": 1, "crop_x": {"Points": [{"co": {"X": 1.0, "Y": 0.0}, "interpolation": 2}]}, "gravity": 4, "perspective_c3_y": {"Points": [{"co": {"X": 1.0, "Y": -1.0}, "interpolation": 2}]}, "perspective_c2_y": {"Points": [{"co": {"X": 1.0, "Y": -1.0}, "interpolation": 2}]}, "shear_y": {"Points": [{"co": {"X": 1.0, "Y": 0.0}, "interpolation": 2}]}, "layer": 4, "volume": {"Points": [{"co": {"X": 1.0, "Y": 1.0}, "interpolation": 2}]}, "image": "../../../../../.openshot_qt/thumbnail/YZT2ONCM8J.png", "wave_color": {"blue": {"Points": [{"co": {"X": 1.0, "Y": 255.0}, "handle_right": {"X": 0.5, "Y": 0.0}, "handle_left": {"X": 0.5, "Y": 1.0}, "interpolation": 0, "handle_type": 0}]}, "alpha": {"Points": [{"co": {"X": 1.0, "Y": 255.0}, "handle_right": {"X": 0.5, "Y": 0.0}, "handle_left": {"X": 0.5, "Y": 1.0}, "interpolation": 0, "handle_type": 0}]}, "red": {"Points": [{"co": {"X": 1.0, "Y": 0.0}, "handle_right": {"X": 0.5, "Y": 0.0}, "handle_left": {"X": 0.5, "Y": 1.0}, "interpolation": 0, "handle_type": 0}]}, "green": {"Points": [{"co": {"X": 1.0, "Y": 123.0}, "handle_right": {"X": 0.5, "Y": 0.0}, "handle_left": {"X": 0.5, "Y": 1.0}, "interpolation": 0, "handle_type": 0}]}}, "scale_x": {"Points": [{"co": {"X": 1.0, "Y": 1.0}, "interpolation": 2}]}, "alpha": {"Points": [{"co": {"X": 1.0, "Y": 1.0}, "interpolation": 2}]}, "effects": [], "position": 50, "perspective_c1_y": {"Points": [{"co": {"X": 1.0, "Y": -1.0}, "interpolation": 2}]}, "display": 0, "shear_x": {"Points": [{"co": {"X": 1.0, "Y": 0.0}, "interpolation": 2}]}, "reader": {"interlaced_frame": false, "has_audio": false, "audio_bit_rate": 0, "channel_layout": 4, "audio_stream_index": -1, "video_timebase": {"den": 30, "num": 1}, "pixel_ratio": {"den": 1, "num": 1}, "type": "QtImageReader", "pixel_format": -1, "display_ratio": {"den": 9, "num": 16}, "height": 1080, "acodec": "", "channels": 0, "video_stream_index": -1, "video_bit_rate": 0, "video_length": "2592000", "file_size": "8294400", "has_video": true, "sample_rate": 0, "duration": 86400.0, "vcodec": "", "top_field_first": true, "audio_timebase": {"den": 1, "num": 1}, "fps": {"den": 1, "num": 30}, "width": 1920, "has_single_image": true, "path": "assets/TitreFichier-6.svg"}, "channel_filter": {"Points": [{"co": {"X": 1.0, "Y": -1.0}, "interpolation": 2}]}, "perspective_c2_x": {"Points": [{"co": {"X": 1.0, "Y": -1.0}, "interpolation": 2}]}, "anchor": 0, "id": "447DR8L3BU", "location_y": {"Points": [{"co": {"X": 1.0, "Y": 0.0}, "interpolation": 2}]}, "channel_mapping": {"Points": [{"co": {"X": 1.0, "Y": -1.0}, "interpolation": 2}]}, "scale_y": {"Points": [{"co": {"X": 1.0, "Y": 1.0}, "interpolation": 2}]}, "crop_y": {"Points": [{"co": {"X": 1.0, "Y": 0.0}, "interpolation": 2}]}, "perspective_c4_y": {"Points": [{"co": {"X": 1.0, "Y": -1.0}, "interpolation": 2}]}, "has_video": {"Points": [{"co": {"X": 1.0, "Y": -1.0}, "interpolation": 2}]}, "title": "TitreFichier-6.svg", "crop_width": {"Points": [{"co": {"X": 1.0, "Y": -1.0}, "interpolation": 2}]}, "location_x": {"Points": [{"co": {"X": 1.0, "Y": 0.0}, "interpolation": 2}]}, "start": 0, "duration": 86400.0, "perspective_c4_x": {"Points": [{"co": {"X": 1.0, "Y": -1.0}, "interpolation": 2}]}}, {"has_audio": {"Points": [{"co": {"X": 1.0, "Y": -1.0}, "interpolation": 2}]}, "rotation": {"Points": [{"co": {"X": 1.0, "Y": 0.0}, "interpolation": 2}]}, "file_id": "FSUOADOAYD", "perspective_c1_x": {"Points": [{"co": {"X": 1.0, "Y": -1.0}, "interpolation": 2}]}, "waveform": false, "time": {"Points": [{"co": {"X": 1.0, "Y": 0.0}, "interpolation": 2}]}, "perspective_c3_x": {"Points": [{"co": {"X": 1.0, "Y": -1.0}, "interpolation": 2}]}, "end": 10, "crop_height": {"Points": [{"co": {"X": 1.0, "Y": -1.0}, "interpolation": 2}]}, "scale": 1, "crop_x": {"Points": [{"co": {"X": 1.0, "Y": 0.0}, "interpolation": 2}]}, "gravity": 4, "perspective_c3_y": {"Points": [{"co": {"X": 1.0, "Y": -1.0}, "interpolation": 2}]}, "perspective_c2_y": {"Points": [{"co": {"X": 1.0, "Y": -1.0}, "interpolation": 2}]}, "shear_y": {"Points": [{"co": {"X": 1.0, "Y": 0.0}, "interpolation": 2}]}, "layer": 4, "volume": {"Points": [{"co": {"X": 1.0, "Y": 1.0}, "interpolation": 2}]}, "image": "../../../../../.openshot_qt/thumbnail/FSUOADOAYD.png", "wave_color": {"blue": {"Points": [{"co": {"X": 1.0, "Y": 255.0}, "handle_right": {"X": 0.5, "Y": 0.0}, "handle_left": {"X": 0.5, "Y": 1.0}, "interpolation": 0, "handle_type": 0}]}, "alpha": {"Points": [{"co": {"X": 1.0, "Y": 255.0}, "handle_right": {"X": 0.5, "Y": 0.0}, "handle_left": {"X": 0.5, "Y": 1.0}, "interpolation": 0, "handle_type": 0}]}, "red": {"Points": [{"co": {"X": 1.0, "Y": 0.0}, "handle_right": {"X": 0.5, "Y": 0.0}, "handle_left": {"X": 0.5, "Y": 1.0}, "interpolation": 0, "handle_type": 0}]}, "green": {"Points": [{"co": {"X": 1.0, "Y": 123.0}, "handle_right": {"X": 0.5, "Y": 0.0}, "handle_left": {"X": 0.5, "Y": 1.0}, "interpolation": 0, "handle_type": 0}]}}, "scale_x": {"Points": [{"co": {"X": 1.0, "Y": 1.0}, "interpolation": 2}]}, "alpha": {"Points": [{"co": {"X": 1.0, "Y": 1.0}, "interpolation": 2}]}, "effects": [], "position": 60, "perspective_c1_y": {"Points": [{"co": {"X": 1.0, "Y": -1.0}, "interpolation": 2}]}, "display": 0, "shear_x": {"Points": [{"co": {"X": 1.0, "Y": 0.0}, "interpolation": 2}]}, "reader": {"interlaced_frame": false, "has_audio": false, "audio_bit_rate": 0, "channel_layout": 4, "audio_stream_index": -1, "video_timebase": {"den": 30, "num": 1}, "pixel_ratio": {"den": 1, "num": 1}, "type": "QtImageReader", "pixel_format": -1, "display_ratio": {"den": 9, "num": 16}, "height": 1080, "acodec": "", "channels": 0, "video_stream_index": -1, "video_bit_rate": 0, "video_length": "2592000", "file_size": "8294400", "has_video": true, "sample_rate": 0, "duration": 86400.0, "vcodec": "", "top_field_first": true, "audio_timebase": {"den": 1, "num": 1}, "fps": {"den": 1, "num": 30}, "width": 1920, "has_single_image": true, "path": "assets/TitreFichier-7.svg"}, "channel_filter": {"Points": [{"co": {"X": 1.0, "Y": -1.0}, "interpolation": 2}]}, "perspective_c2_x": {"Points": [{"co": {"X": 1.0, "Y": -1.0}, "interpolation": 2}]}, "anchor": 0, "id": "I8D21LN9AV", "location_y": {"Points": [{"co": {"X": 1.0, "Y": 0.0}, "interpolation": 2}]}, "channel_mapping": {"Points": [{"co": {"X": 1.0, "Y": -1.0}, "interpolation": 2}]}, "scale_y": {"Points": [{"co": {"X": 1.0, "Y": 1.0}, "interpolation": 2}]}, "crop_y": {"Points": [{"co": {"X": 1.0, "Y": 0.0}, "interpolation": 2}]}, "perspective_c4_y": {"Points": [{"co": {"X": 1.0, "Y": -1.0}, "interpolation": 2}]}, "has_video": {"Points": [{"co": {"X": 1.0, "Y": -1.0}, "interpolation": 2}]}, "title": "TitreFichier-7.svg", "crop_width": {"Points": [{"co": {"X": 1.0, "Y": -1.0}, "interpolation": 2}]}, "location_x": {"Points": [{"co": {"X": 1.0, "Y": 0.0}, "interpolation": 2}]}, "start": 0, "duration": 86400.0, "perspective_c4_x": {"Points": [{"co": {"X": 1.0, "Y": -1.0}, "interpolation": 2}]}}, {"has_audio": {"Points": [{"co": {"X": 1.0, "Y": -1.0}, "interpolation": 2}]}, "rotation": {"Points": [{"co": {"X": 1.0, "Y": 0.0}, "interpolation": 2}]}, "file_id": "JPO77SAFD8", "perspective_c1_x": {"Points": [{"co": {"X": 1.0, "Y": -1.0}, "interpolation": 2}]}, "waveform": false, "time": {"Points": [{"co": {"X": 1.0, "Y": 0.0}, "interpolation": 2}]}, "perspective_c3_x": {"Points": [{"co": {"X": 1.0, "Y": -1.0}, "interpolation": 2}]}, "end": 10, "crop_height": {"Points": [{"co": {"X": 1.0, "Y": -1.0}, "interpolation": 2}]}, "scale": 1, "crop_x": {"Points": [{"co": {"X": 1.0, "Y": 0.0}, "interpolation": 2}]}, "gravity": 4, "perspective_c3_y": {"Points": [{"co": {"X": 1.0, "Y": -1.0}, "interpolation": 2}]}, "perspective_c2_y": {"Points": [{"co": {"X": 1.0, "Y": -1.0}, "interpolation": 2}]}, "shear_y": {"Points": [{"co": {"X": 1.0, "Y": 0.0}, "interpolation": 2}]}, "layer": 4, "volume": {"Points": [{"co": {"X": 1.0, "Y": 1.0}, "interpolation": 2}]}, "image": "../../../../../.openshot_qt/thumbnail/JPO77SAFD8.png", "wave_color": {"blue": {"Points": [{"co": {"X": 1.0, "Y": 255.0}, "handle_right": {"X": 0.5, "Y": 0.0}, "handle_left": {"X": 0.5, "Y": 1.0}, "interpolation": 0, "handle_type": 0}]}, "alpha": {"Points": [{"co": {"X": 1.0, "Y": 255.0}, "handle_right": {"X": 0.5, "Y": 0.0}, "handle_left": {"X": 0.5, "Y": 1.0}, "interpolation": 0, "handle_type": 0}]}, "red": {"Points": [{"co": {"X": 1.0, "Y": 0.0}, "handle_right": {"X": 0.5, "Y": 0.0}, "handle_left": {"X": 0.5, "Y": 1.0}, "interpolation": 0, "handle_type": 0}]}, "green": {"Points": [{"co": {"X": 1.0, "Y": 123.0}, "handle_right": {"X": 0.5, "Y": 0.0}, "handle_left": {"X": 0.5, "Y": 1.0}, "interpolation": 0, "handle_type": 0}]}}, "scale_x": {"Points": [{"co": {"X": 1.0, "Y": 1.0}, "interpolation": 2}]}, "alpha": {"Points": [{"co": {"X": 1.0, "Y": 1.0}, "interpolation": 2}]}, "effects": [], "position": 70, "perspective_c1_y": {"Points": [{"co": {"X": 1.0, "Y": -1.0}, "interpolation": 2}]}, "display": 0, "shear_x": {"Points": [{"co": {"X": 1.0, "Y": 0.0}, "interpolation": 2}]}, "reader": {"interlaced_frame": false, "has_audio": false, "audio_bit_rate": 0, "channel_layout": 4, "audio_stream_index": -1, "video_timebase": {"den": 30, "num": 1}, "pixel_ratio": {"den": 1, "num": 1}, "type": "QtImageReader", "pixel_format": -1, "display_ratio": {"den": 9, "num": 16}, "height": 1080, "acodec": "", "channels": 0, "video_stream_index": -1, "video_bit_rate": 0, "video_length": "2592000", "file_size": "8294400", "has_video": true, "sample_rate": 0, "duration": 86400.0, "vcodec": "", "top_field_first": true, "audio_timebase": {"den": 1, "num": 1}, "fps": {"den": 1, "num": 30}, "width": 1920, "has_single_image": true, "path": "assets/TitreFichier-8.svg"}, "channel_filter": {"Points": [{"co": {"X": 1.0, "Y": -1.0}, "interpolation": 2}]}, "perspective_c2_x": {"Points": [{"co": {"X": 1.0, "Y": -1.0}, "interpolation": 2}]}, "anchor": 0, "id": "C0CR1JLEYK", "location_y": {"Points": [{"co": {"X": 1.0, "Y": 0.0}, "interpolation": 2}]}, "channel_mapping": {"Points": [{"co": {"X": 1.0, "Y": -1.0}, "interpolation": 2}]}, "scale_y": {"Points": [{"co": {"X": 1.0, "Y": 1.0}, "interpolation": 2}]}, "crop_y": {"Points": [{"co": {"X": 1.0, "Y": 0.0}, "interpolation": 2}]}, "perspective_c4_y": {"Points": [{"co": {"X": 1.0, "Y": -1.0}, "interpolation": 2}]}, "has_video": {"Points": [{"co": {"X": 1.0, "Y": -1.0}, "interpolation": 2}]}, "title": "TitreFichier-8.svg", "crop_width": {"Points": [{"co": {"X": 1.0, "Y": -1.0}, "interpolation": 2}]}, "location_x": {"Points": [{"co": {"X": 1.0, "Y": 0.0}, "interpolation": 2}]}, "start": 0, "duration": 86400.0, "perspective_c4_x": {"Points": [{"co": {"X": 1.0, "Y": -1.0}, "interpolation": 2}]}}, {"has_audio": {"Points": [{"co": {"X": 1.0, "Y": -1.0}, "interpolation": 2}]}, "rotation": {"Points": [{"co": {"X": 1.0, "Y": 0.0}, "interpolation": 2}]}, "file_id": "TGXS2O99P3", "perspective_c1_x": {"Points": [{"co": {"X": 1.0, "Y": -1.0}, "interpolation": 2}]}, "waveform": false, "time": {"Points": [{"co": {"X": 1.0, "Y": 0.0}, "interpolation": 2}]}, "perspective_c3_x": {"Points": [{"co": {"X": 1.0, "Y": -1.0}, "interpolation": 2}]}, "end": 10, "crop_height": {"Points": [{"co": {"X": 1.0, "Y": -1.0}, "interpolation": 2}]}, "scale": 1, "crop_x": {"Points": [{"co": {"X": 1.0, "Y": 0.0}, "interpolation": 2}]}, "gravity": 4, "perspective_c3_y": {"Points": [{"co": {"X": 1.0, "Y": -1.0}, "interpolation": 2}]}, "perspective_c2_y": {"Points": [{"co": {"X": 1.0, "Y": -1.0}, "interpolation": 2}]}, "shear_y": {"Points": [{"co": {"X": 1.0, "Y": 0.0}, "interpolation": 2}]}, "layer": 4, "volume": {"Points": [{"co": {"X": 1.0, "Y": 1.0}, "interpolation": 2}]}, "image": "../../../../../.openshot_qt/thumbnail/TGXS2O99P3.png", "wave_color": {"blue": {"Points": [{"co": {"X": 1.0, "Y": 255.0}, "handle_right": {"X": 0.5, "Y": 0.0}, "handle_left": {"X": 0.5, "Y": 1.0}, "interpolation": 0, "handle_type": 0}]}, "alpha": {"Points": [{"co": {"X": 1.0, "Y": 255.0}, "handle_right": {"X": 0.5, "Y": 0.0}, "handle_left": {"X": 0.5, "Y": 1.0}, "interpolation": 0, "handle_type": 0}]}, "red": {"Points": [{"co": {"X": 1.0, "Y": 0.0}, "handle_right": {"X": 0.5, "Y": 0.0}, "handle_left": {"X": 0.5, "Y": 1.0}, "interpolation": 0, "handle_type": 0}]}, "green": {"Points": [{"co": {"X": 1.0, "Y": 123.0}, "handle_right": {"X": 0.5, "Y": 0.0}, "handle_left": {"X": 0.5, "Y": 1.0}, "interpolation": 0, "handle_type": 0}]}}, "scale_x": {"Points": [{"co": {"X": 1.0, "Y": 1.0}, "interpolation": 2}]}, "alpha": {"Points": [{"co": {"X": 1.0, "Y": 1.0}, "interpolation": 2}]}, "effects": [], "position": 80, "perspective_c1_y": {"Points": [{"co": {"X": 1.0, "Y": -1.0}, "interpolation": 2}]}, "display": 0, "shear_x": {"Points": [{"co": {"X": 1.0, "Y": 0.0}, "interpolation": 2}]}, "reader": {"interlaced_frame": false, "has_audio": false, "audio_bit_rate": 0, "channel_layout": 4, "audio_stream_index": -1, "video_timebase": {"den": 30, "num": 1}, "pixel_ratio": {"den": 1, "num": 1}, "type": "QtImageReader", "pixel_format": -1, "display_ratio": {"den": 9, "num": 16}, "height": 1080, "acodec": "", "channels": 0, "video_stream_index": -1, "video_bit_rate": 0, "video_length": "2592000", "file_size": "8294400", "has_video": true, "sample_rate": 0, "duration": 86400.0, "vcodec": "", "top_field_first": true, "audio_timebase": {"den": 1, "num": 1}, "fps": {"den": 1, "num": 30}, "width": 1920, "has_single_image": true, "path": "assets/TitreFichier-9.svg"}, "channel_filter": {"Points": [{"co": {"X": 1.0, "Y": -1.0}, "interpolation": 2}]}, "perspective_c2_x": {"Points": [{"co": {"X": 1.0, "Y": -1.0}, "interpolation": 2}]}, "anchor": 0, "id": "3HFX2WFLKV", "location_y": {"Points": [{"co": {"X": 1.0, "Y": 0.0}, "interpolation": 2}]}, "channel_mapping": {"Points": [{"co": {"X": 1.0, "Y": -1.0}, "interpolation": 2}]}, "scale_y": {"Points": [{"co": {"X": 1.0, "Y": 1.0}, "interpolation": 2}]}, "crop_y": {"Points": [{"co": {"X": 1.0, "Y": 0.0}, "interpolation": 2}]}, "perspective_c4_y": {"Points": [{"co": {"X": 1.0, "Y": -1.0}, "interpolation": 2}]}, "has_video": {"Points": [{"co": {"X": 1.0, "Y": -1.0}, "interpolation": 2}]}, "title": "TitreFichier-9.svg", "crop_width": {"Points": [{"co": {"X": 1.0, "Y": -1.0}, "interpolation": 2}]}, "location_x": {"Points": [{"co": {"X": 1.0, "Y": 0.0}, "interpolation": 2}]}, "start": 0, "duration": 86400.0, "perspective_c4_x": {"Points": [{"co": {"X": 1.0, "Y": -1.0}, "interpolation": 2}]}}, {"has_audio": {"Points": [{"co": {"X": 1.0, "Y": -1.0}, "interpolation": 2}]}, "rotation": {"Points": [{"co": {"X": 1.0, "Y": 0.0}, "interpolation": 2}]}, "file_id": "04UJGNEISI", "perspective_c1_x": {"Points": [{"co": {"X": 1.0, "Y": -1.0}, "interpolation": 2}]}, "waveform": false, "time": {"Points": [{"co": {"X": 1.0, "Y": 0.0}, "interpolation": 2}]}, "perspective_c3_x": {"Points": [{"co": {"X": 1.0, "Y": -1.0}, "interpolation": 2}]}, "end": 10, "crop_height": {"Points": [{"co": {"X": 1.0, "Y": -1.0}, "interpolation": 2}]}, "scale": 1, "crop_x": {"Points": [{"co": {"X": 1.0, "Y": 0.0}, "interpolation": 2}]}, "gravity": 4, "perspective_c3_y": {"Points": [{"co": {"X": 1.0, "Y": -1.0}, "interpolation": 2}]}, "perspective_c2_y": {"Points": [{"co": {"X": 1.0, "Y": -1.0}, "interpolation": 2}]}, "shear_y": {"Points": [{"co": {"X": 1.0, "Y": 0.0}, "interpolation": 2}]}, "layer": 4, "volume": {"Points": [{"co": {"X": 1.0, "Y": 1.0}, "interpolation": 2}]}, "image": "../../../../../.openshot_qt/thumbnail/04UJGNEISI.png", "wave_color": {"blue": {"Points": [{"co": {"X": 1.0, "Y": 255.0}, "handle_right": {"X": 0.5, "Y": 0.0}, "handle_left": {"X": 0.5, "Y": 1.0}, "interpolation": 0, "handle_type": 0}]}, "alpha": {"Points": [{"co": {"X": 1.0, "Y": 255.0}, "handle_right": {"X": 0.5, "Y": 0.0}, "handle_left": {"X": 0.5, "Y": 1.0}, "interpolation": 0, "handle_type": 0}]}, "red": {"Points": [{"co": {"X": 1.0, "Y": 0.0}, "handle_right": {"X": 0.5, "Y": 0.0}, "handle_left": {"X": 0.5, "Y": 1.0}, "interpolation": 0, "handle_type": 0}]}, "green": {"Points": [{"co": {"X": 1.0, "Y": 123.0}, "handle_right": {"X": 0.5, "Y": 0.0}, "handle_left": {"X": 0.5, "Y": 1.0}, "interpolation": 0, "handle_type": 0}]}}, "scale_x": {"Points": [{"co": {"X": 1.0, "Y": 1.0}, "interpolation": 2}]}, "alpha": {"Points": [{"co": {"X": 1.0, "Y": 1.0}, "interpolation": 2}]}, "effects": [], "position": 90, "perspective_c1_y": {"Points": [{"co": {"X": 1.0, "Y": -1.0}, "interpolation": 2}]}, "display": 0, "shear_x": {"Points": [{"co": {"X": 1.0, "Y": 0.0}, "interpolation": 2}]}, "reader": {"interlaced_frame": false, "has_audio": false, "audio_bit_rate": 0, "channel_layout": 4, "audio_stream_index": -1, "video_timebase": {"den": 30, "num": 1}, "pixel_ratio": {"den": 1, "num": 1}, "type": "QtImageReader", "pixel_format": -1, "display_ratio": {"den": 9, "num": 16}, "height": 1080, "acodec": "", "channels": 0, "video_stream_index": -1, "video_bit_rate": 0, "video_length": "2592000", "file_size": "8294400", "has_video": true, "sample_rate": 0, "duration": 86400.0, "vcodec": "", "top_field_first": true, "audio_timebase": {"den": 1, "num": 1}, "fps": {"den": 1, "num": 30}, "width": 1920, "has_single_image": true, "path": "assets/TitreFichier-10.svg"}, "channel_filter": {"Points": [{"co": {"X": 1.0, "Y": -1.0}, "interpolation": 2}]}, "perspective_c2_x": {"Points": [{"co": {"X": 1.0, "Y": -1.0}, "interpolation": 2}]}, "anchor": 0, "id": "E4F7MSTPXQ", "location_y": {"Points": [{"co": {"X": 1.0, "Y": 0.0}, "interpolation": 2}]}, "channel_mapping": {"Points": [{"co": {"X": 1.0, "Y": -1.0}, "interpolation": 2}]}, "scale_y": {"Points": [{"co": {"X": 1.0, "Y": 1.0}, "interpolation": 2}]}, "crop_y": {"Points": [{"co": {"X": 1.0, "Y": 0.0}, "interpolation": 2}]}, "perspective_c4_y": {"Points": [{"co": {"X": 1.0, "Y": -1.0}, "interpolation": 2}]}, "has_video": {"Points": [{"co": {"X": 1.0, "Y": -1.0}, "interpolation": 2}]}, "title": "TitreFichier-10.svg", "crop_width": {"Points": [{"co": {"X": 1.0, "Y": -1.0}, "interpolation": 2}]}, "location_x": {"Points": [{"co": {"X": 1.0, "Y": 0.0}, "interpolation": 2}]}, "start": 0, "duration": 86400.0, "perspective_c4_x": {"Points": [{"co": {"X": 1.0, "Y": -1.0}, "interpolation": 2}]}}, {"has_audio": {"Points": [{"co": {"X": 1.0, "Y": -1.0}, "interpolation": 2}]}, "rotation": {"Points": [{"co": {"X": 1.0, "Y": 0.0}, "interpolation": 2}]}, "file_id": "2T4JR2T1W4", "perspective_c1_x": {"Points": [{"co": {"X": 1.0, "Y": -1.0}, "interpolation": 2}]}, "waveform": false, "time": {"Points": [{"co": {"X": 1.0, "Y": 0.0}, "interpolation": 2}]}, "perspective_c3_x": {"Points": [{"co": {"X": 1.0, "Y": -1.0}, "interpolation": 2}]}, "end": 10, "crop_height": {"Points": [{"co": {"X": 1.0, "Y": -1.0}, "interpolation": 2}]}, "scale": 1, "crop_x": {"Points": [{"co": {"X": 1.0, "Y": 0.0}, "interpolation": 2}]}, "gravity": 4, "perspective_c3_y": {"Points": [{"co": {"X": 1.0, "Y": -1.0}, "interpolation": 2}]}, "perspective_c2_y": {"Points": [{"co": {"X": 1.0, "Y": -1.0}, "interpolation": 2}]}, "shear_y": {"Points": [{"co": {"X": 1.0, "Y": 0.0}, "interpolation": 2}]}, "layer": 4, "volume": {"Points": [{"co": {"X": 1.0, "Y": 1.0}, "interpolation": 2}]}, "image": "../../../../../.openshot_qt/thumbnail/2T4JR2T1W4.png", "wave_color": {"blue": {"Points": [{"co": {"X": 1.0, "Y": 255.0}, "handle_right": {"X": 0.5, "Y": 0.0}, "handle_left": {"X": 0.5, "Y": 1.0}, "interpolation": 0, "handle_type": 0}]}, "alpha": {"Points": [{"co": {"X": 1.0, "Y": 255.0}, "handle_right": {"X": 0.5, "Y": 0.0}, "handle_left": {"X": 0.5, "Y": 1.0}, "interpolation": 0, "handle_type": 0}]}, "red": {"Points": [{"co": {"X": 1.0, "Y": 0.0}, "handle_right": {"X": 0.5, "Y": 0.0}, "handle_left": {"X": 0.5, "Y": 1.0}, "interpolation": 0, "handle_type": 0}]}, "green": {"Points": [{"co": {"X": 1.0, "Y": 123.0}, "handle_right": {"X": 0.5, "Y": 0.0}, "handle_left": {"X": 0.5, "Y": 1.0}, "interpolation": 0, "handle_type": 0}]}}, "scale_x": {"Points": [{"co": {"X": 1.0, "Y": 1.0}, "interpolation": 2}]}, "alpha": {"Points": [{"co": {"X": 1.0, "Y": 1.0}, "interpolation": 2}]}, "effects": [], "position": 100, "perspective_c1_y": {"Points": [{"co": {"X": 1.0, "Y": -1.0}, "interpolation": 2}]}, "display": 0, "shear_x": {"Points": [{"co": {"X": 1.0, "Y": 0.0}, "interpolation": 2}]}, "reader": {"interlaced_frame": false, "has_audio": false, "audio_bit_rate": 0, "channel_layout": 4, "audio_stream_index": -1, "video_timebase": {"den": 30, "num": 1}, "pixel_ratio": {"den": 1, "num": 1}, "type": "QtImageReader", "pixel_format": -1, "display_ratio": {"den": 9, "num": 16}, "height": 1080, "acodec": "", "channels": 0, "video_stream_index": -1, "video_bit_rate": 0, "video_length": "2592000", "file_size": "8294400", "has_video": true, "sample_rate": 0, "duration": 86400.0, "vcodec": "", "top_field_first": true, "audio_timebase": {"den": 1, "num": 1}, "fps": {"den": 1, "num": 30}, "width": 1920, "has_single_image": true, "path": "assets/TitreFichier-11.svg"}, "channel_filter": {"Points": [{"co": {"X": 1.0, "Y": -1.0}, "interpolation": 2}]}, "perspective_c2_x": {"Points": [{"co": {"X": 1.0, "Y": -1.0}, "interpolation": 2}]}, "anchor": 0, "id": "TI09SBFO2G", "location_y": {"Points": [{"co": {"X": 1.0, "Y": 0.0}, "interpolation": 2}]}, "channel_mapping": {"Points": [{"co": {"X": 1.0, "Y": -1.0}, "interpolation": 2}]}, "scale_y": {"Points": [{"co": {"X": 1.0, "Y": 1.0}, "interpolation": 2}]}, "crop_y": {"Points": [{"co": {"X": 1.0, "Y": 0.0}, "interpolation": 2}]}, "perspective_c4_y": {"Points": [{"co": {"X": 1.0, "Y": -1.0}, "interpolation": 2}]}, "has_video": {"Points": [{"co": {"X": 1.0, "Y": -1.0}, "interpolation": 2}]}, "title": "TitreFichier-11.svg", "crop_width": {"Points": [{"co": {"X": 1.0, "Y": -1.0}, "interpolation": 2}]}, "location_x": {"Points": [{"co": {"X": 1.0, "Y": 0.0}, "interpolation": 2}]}, "start": 0, "duration": 86400.0, "perspective_c4_x": {"Points": [{"co": {"X": 1.0, "Y": -1.0}, "interpolation": 2}]}}, {"has_audio": {"Points": [{"co": {"X": 1.0, "Y": -1.0}, "interpolation": 2}]}, "rotation": {"Points": [{"co": {"X": 1.0, "Y": 0.0}, "interpolation": 2}]}, "file_id": "FDJC1T7RPA", "perspective_c1_x": {"Points": [{"co": {"X": 1.0, "Y": -1.0}, "interpolation": 2}]}, "waveform": false, "time": {"Points": [{"co": {"X": 1.0, "Y": 0.0}, "interpolation": 2}]}, "perspective_c3_x": {"Points": [{"co": {"X": 1.0, "Y": -1.0}, "interpolation": 2}]}, "end": 10, "crop_height": {"Points": [{"co": {"X": 1.0, "Y": -1.0}, "interpolation": 2}]}, "scale": 1, "crop_x": {"Points": [{"co": {"X": 1.0, "Y": 0.0}, "interpolation": 2}]}, "gravity": 4, "perspective_c3_y": {"Points": [{"co": {"X": 1.0, "Y": -1.0}, "interpolation": 2}]}, "perspective_c2_y": {"Points": [{"co": {"X": 1.0, "Y": -1.0}, "interpolation": 2}]}, "shear_y": {"Points": [{"co": {"X": 1.0, "Y": 0.0}, "interpolation": 2}]}, "layer": 4, "volume": {"Points": [{"co": {"X": 1.0, "Y": 1.0}, "interpolation": 2}]}, "image": "../../../../../.openshot_qt/thumbnail/FDJC1T7RPA.png", "wave_color": {"blue": {"Points": [{"co": {"X": 1.0, "Y": 255.0}, "handle_right": {"X": 0.5, "Y": 0.0}, "handle_left": {"X": 0.5, "Y": 1.0}, "interpolation": 0, "handle_type": 0}]}, "alpha": {"Points": [{"co": {"X": 1.0, "Y": 255.0}, "handle_right": {"X": 0.5, "Y": 0.0}, "handle_left": {"X": 0.5, "Y": 1.0}, "interpolation": 0, "handle_type": 0}]}, "red": {"Points": [{"co": {"X": 1.0, "Y": 0.0}, "handle_right": {"X": 0.5, "Y": 0.0}, "handle_left": {"X": 0.5, "Y": 1.0}, "interpolation": 0, "handle_type": 0}]}, "green": {"Points": [{"co": {"X": 1.0, "Y": 123.0}, "handle_right": {"X": 0.5, "Y": 0.0}, "handle_left": {"X": 0.5, "Y": 1.0}, "interpolation": 0, "handle_type": 0}]}}, "scale_x": {"Points": [{"co": {"X": 1.0, "Y": 1.0}, "interpolation": 2}]}, "alpha": {"Points": [{"co": {"X": 1.0, "Y": 1.0}, "interpolation": 2}]}, "effects": [], "position": 110, "perspective_c1_y": {"Points": [{"co": {"X": 1.0, "Y": -1.0}, "interpolation": 2}]}, "display": 0, "shear_x": {"Points": [{"co": {"X": 1.0, "Y": 0.0}, "interpolation": 2}]}, "reader": {"interlaced_frame": false, "has_audio": false, "audio_bit_rate": 0, "channel_layout": 4, "audio_stream_index": -1, "video_timebase": {"den": 30, "num": 1}, "pixel_ratio": {"den": 1, "num": 1}, "type": "QtImageReader", "pixel_format": -1, "display_ratio": {"den": 9, "num": 16}, "height": 1080, "acodec": "", "channels": 0, "video_stream_index": -1, "video_bit_rate": 0, "video_length": "2592000", "file_size": "8294400", "has_video": true, "sample_rate": 0, "duration": 86400.0, "vcodec": "", "top_field_first": true, "audio_timebase": {"den": 1, "num": 1}, "fps": {"den": 1, "num": 30}, "width": 1920, "has_single_image": true, "path": "assets/TitreFichier-12.svg"}, "channel_filter": {"Points": [{"co": {"X": 1.0, "Y": -1.0}, "interpolation": 2}]}, "perspective_c2_x": {"Points": [{"co": {"X": 1.0, "Y": -1.0}, "interpolation": 2}]}, "anchor": 0, "id": "JV4ID5QLPF", "location_y": {"Points": [{"co": {"X": 1.0, "Y": 0.0}, "interpolation": 2}]}, "channel_mapping": {"Points": [{"co": {"X": 1.0, "Y": -1.0}, "interpolation": 2}]}, "scale_y": {"Points": [{"co": {"X": 1.0, "Y": 1.0}, "interpolation": 2}]}, "crop_y": {"Points": [{"co": {"X": 1.0, "Y": 0.0}, "interpolation": 2}]}, "perspective_c4_y": {"Points": [{"co": {"X": 1.0, "Y": -1.0}, "interpolation": 2}]}, "has_video": {"Points": [{"co": {"X": 1.0, "Y": -1.0}, "interpolation": 2}]}, "title": "TitreFichier-12.svg", "crop_width": {"Points": [{"co": {"X": 1.0, "Y": -1.0}, "interpolation": 2}]}, "location_x": {"Points": [{"co": {"X": 1.0, "Y": 0.0}, "interpolation": 2}]}, "start": 0, "duration": 86400.0, "perspective_c4_x": {"Points": [{"co": {"X": 1.0, "Y": -1.0}, "interpolation": 2}]}}, {"has_audio": {"Points": [{"co": {"X": 1.0, "Y": -1.0}, "interpolation": 2}]}, "rotation": {"Points": [{"co": {"X": 1.0, "Y": 0.0}, "interpolation": 2}]}, "file_id": "3P8U8TXZMR", "perspective_c1_x": {"Points": [{"co": {"X": 1.0, "Y": -1.0}, "interpolation": 2}]}, "waveform": false, "time": {"Points": [{"co": {"X": 1.0, "Y": 0.0}, "interpolation": 2}]}, "perspective_c3_x": {"Points": [{"co": {"X": 1.0, "Y": -1.0}, "interpolation": 2}]}, "end": 10, "crop_height": {"Points": [{"co": {"X": 1.0, "Y": -1.0}, "interpolation": 2}]}, "scale": 1, "crop_x": {"Points": [{"co": {"X": 1.0, "Y": 0.0}, "interpolation": 2}]}, "gravity": 4, "perspective_c3_y": {"Points": [{"co": {"X": 1.0, "Y": -1.0}, "interpolation": 2}]}, "perspective_c2_y": {"Points": [{"co": {"X": 1.0, "Y": -1.0}, "interpolation": 2}]}, "shear_y": {"Points": [{"co": {"X": 1.0, "Y": 0.0}, "interpolation": 2}]}, "layer": 4, "volume": {"Points": [{"co": {"X": 1.0, "Y": 1.0}, "interpolation": 2}]}, "image": "../../../../../.openshot_qt/thumbnail/3P8U8TXZMR.png", "wave_color": {"blue": {"Points": [{"co": {"X": 1.0, "Y": 255.0}, "handle_right": {"X": 0.5, "Y": 0.0}, "handle_left": {"X": 0.5, "Y": 1.0}, "interpolation": 0, "handle_type": 0}]}, "alpha": {"Points": [{"co": {"X": 1.0, "Y": 255.0}, "handle_right": {"X": 0.5, "Y": 0.0}, "handle_left": {"X": 0.5, "Y": 1.0}, "interpolation": 0, "handle_type": 0}]}, "red": {"Points": [{"co": {"X": 1.0, "Y": 0.0}, "handle_right": {"X": 0.5, "Y": 0.0}, "handle_left": {"X": 0.5, "Y": 1.0}, "interpolation": 0, "handle_type": 0}]}, "green": {"Points": [{"co": {"X": 1.0, "Y": 123.0}, "handle_right": {"X": 0.5, "Y": 0.0}, "handle_left": {"X": 0.5, "Y": 1.0}, "interpolation": 0, "handle_type": 0}]}}, "scale_x": {"Points": [{"co": {"X": 1.0, "Y": 1.0}, "interpolation": 2}]}, "alpha": {"Points": [{"co": {"X": 1.0, "Y": 1.0}, "interpolation": 2}]}, "effects": [], "position": 120, "perspective_c1_y": {"Points": [{"co": {"X": 1.0, "Y": -1.0}, "interpolation": 2}]}, "display": 0, "shear_x": {"Points": [{"co": {"X": 1.0, "Y": 0.0}, "interpolation": 2}]}, "reader": {"interlaced_frame": false, "has_audio": false, "audio_bit_rate": 0, "channel_layout": 4, "audio_stream_index": -1, "video_timebase": {"den": 30, "num": 1}, "pixel_ratio": {"den": 1, "num": 1}, "type": "QtImageReader", "pixel_format": -1, "display_ratio": {"den": 9, "num": 16}, "height": 1080, "acodec": "", "channels": 0, "video_stream_index": -1, "video_bit_rate": 0, "video_length": "2592000", "file_size": "8294400", "has_video": true, "sample_rate": 0, "duration": 86400.0, "vcodec": "", "top_field_first": true, "audio_timebase": {"den": 1, "num": 1}, "fps": {"den": 1, "num": 30}, "width": 1920, "has_single_image": true, "path": "assets/TitreFichier-13.svg"}, "channel_filter": {"Points": [{"co": {"X": 1.0, "Y": -1.0}, "interpolation": 2}]}, "perspective_c2_x": {"Points": [{"co": {"X": 1.0, "Y": -1.0}, "interpolation": 2}]}, "anchor": 0, "id": "B427DWY3XA", "location_y": {"Points": [{"co": {"X": 1.0, "Y": 0.0}, "interpolation": 2}]}, "channel_mapping": {"Points": [{"co": {"X": 1.0, "Y": -1.0}, "interpolation": 2}]}, "scale_y": {"Points": [{"co": {"X": 1.0, "Y": 1.0}, "interpolation": 2}]}, "crop_y": {"Points": [{"co": {"X": 1.0, "Y": 0.0}, "interpolation": 2}]}, "perspective_c4_y": {"Points": [{"co": {"X": 1.0, "Y": -1.0}, "interpolation": 2}]}, "has_video": {"Points": [{"co": {"X": 1.0, "Y": -1.0}, "interpolation": 2}]}, "title": "TitreFichier-13.svg", "crop_width": {"Points": [{"co": {"X": 1.0, "Y": -1.0}, "interpolation": 2}]}, "location_x": {"Points": [{"co": {"X": 1.0, "Y": 0.0}, "interpolation": 2}]}, "start": 0, "duration": 86400.0, "perspective_c4_x": {"Points": [{"co": {"X": 1.0, "Y": -1.0}, "interpolation": 2}]}}], "version": {"openshot-qt": "2.3.4", "libopenshot": "0.1.7"}, "settings": {}, "channels": 2, "playhead_position": 0, "duration": 300, "tick_pixels": 100, "layers": [{"lock": false, "number": 0, "label": "", "y": 0, "id": "L0"}, {"lock": false, "number": 1, "label": "", "y": 0, "id": "L1"}, {"lock": false, "number": 2, "label": "", "y": 0, "id": "L2"}, {"lock": false, "number": 3, "label": "", "y": 0, "id": "L3"}, {"lock": false, "number": 4, "label": "", "y": 0, "id": "L4"}], "effects": [], "scale": 23, "fps": {"den": 1, "num": 24}, "height": 720, "width": 1280, "sample_rate": 44100, "id": "T0", "markers": [{"icon": "blue.png", "position": 61.166666666666664, "id": "DAQ9V4NM7G"}]}